<?xml version="1.0" standalone="no"?><svg xmlns="http://www.w3.org/2000/svg" viewBox="0 0 1440 320"><path fill="#3c445c" fill-opacity="1" d="M0,96L18.5,128C36.9,160,74,224,111,224C147.7,224,185,160,222,138.7C258.5,117,295,139,332,160C369.2,181,406,203,443,213.3C480,224,517,224,554,218.7C590.8,213,628,203,665,197.3C701.5,192,738,192,775,186.7C812.3,181,849,171,886,181.3C923.1,192,960,224,997,229.3C1033.8,235,1071,213,1108,176C1144.6,139,1182,85,1218,96C1255.4,107,1292,181,1329,202.7C1366.2,224,1403,192,1422,176L1440,160L1440,320L1421.5,320C1403.1,320,1366,320,1329,320C1292.3,320,1255,320,1218,320C1181.5,320,1145,320,1108,320C1070.8,320,1034,320,997,320C960,320,923,320,886,320C849.2,320,812,320,775,320C738.5,320,702,320,665,320C627.7,320,591,320,554,320C516.9,320,480,320,443,320C406.2,320,369,320,332,320C295.4,320,258,320,222,320C184.6,320,148,320,111,320C73.8,320,37,320,18,320L0,320Z"></path></svg>