<?xml version="1.0" standalone="no"?><svg xmlns="http://www.w3.org/2000/svg" viewBox="0 0 1440 320"><path fill="#000103" fill-opacity="1" d="M0,32L24,74.7C48,117,96,203,144,234.7C192,267,240,245,288,229.3C336,213,384,203,432,186.7C480,171,528,149,576,165.3C624,181,672,235,720,250.7C768,267,816,245,864,240C912,235,960,245,1008,229.3C1056,213,1104,171,1152,165.3C1200,160,1248,192,1296,181.3C1344,171,1392,117,1416,90.7L1440,64L1440,320L1416,320C1392,320,1344,320,1296,320C1248,320,1200,320,1152,320C1104,320,1056,320,1008,320C960,320,912,320,864,320C816,320,768,320,720,320C672,320,624,320,576,320C528,320,480,320,432,320C384,320,336,320,288,320C240,320,192,320,144,320C96,320,48,320,24,320L0,320Z"></path></svg>